<svg xmlns="http://www.w3.org/2000/svg" xmlns:xlink="http://www.w3.org/1999/xlink" width="119" zoomAndPan="magnify" viewBox="0 0 89.25 86.249997" height="115" preserveAspectRatio="xMidYMid meet" version="1.0"><defs><clipPath id="beba2775e7"><path d="M 0.0117188 0 L 88.492188 0 L 88.492188 85.507812 L 0.0117188 85.507812 Z M 0.0117188 0 " clip-rule="nonzero"/></clipPath><clipPath id="40734ade74"><path d="M 11 38 L 77 38 L 77 84.761719 L 11 84.761719 Z M 11 38 " clip-rule="nonzero"/></clipPath><clipPath id="3f8be3e047"><path d="M 0.0117188 0 L 88.492188 0 L 88.492188 40 L 0.0117188 40 Z M 0.0117188 0 " clip-rule="nonzero"/></clipPath></defs><g clip-path="url(#beba2775e7)"><path fill="#ffffff" d="M 0.0117188 0 L 88.492188 0 L 88.492188 85.507812 L 0.0117188 85.507812 Z M 0.0117188 0 " fill-opacity="1" fill-rule="nonzero"/></g><g clip-path="url(#40734ade74)"><path fill="#23255d" d="M 72.800781 78.867188 C 72.800781 80 71.882812 80.902344 70.769531 80.902344 L 56.480469 80.902344 C 55.351562 80.902344 54.449219 79.980469 54.449219 78.867188 L 54.449219 57.6875 C 54.449219 54.3125 51.707031 51.570312 48.332031 51.570312 L 40.164062 51.570312 C 36.785156 51.570312 34.046875 54.3125 34.046875 57.6875 L 34.046875 78.867188 C 34.046875 80 33.128906 80.902344 32.011719 80.902344 L 17.675781 80.902344 C 16.542969 80.902344 15.640625 79.980469 15.640625 78.867188 L 15.640625 38.046875 L 11.558594 38.046875 L 11.558594 78.867188 C 11.558594 82.246094 14.296875 84.984375 17.675781 84.984375 L 31.960938 84.984375 C 35.335938 84.984375 38.078125 82.246094 38.078125 78.867188 L 38.078125 57.6875 C 38.078125 56.554688 38.996094 55.652344 40.109375 55.652344 L 48.277344 55.652344 C 49.410156 55.652344 50.3125 56.574219 50.3125 57.6875 L 50.3125 78.867188 C 50.3125 82.246094 53.050781 84.984375 56.429688 84.984375 L 70.714844 84.984375 C 74.089844 84.984375 76.832031 82.246094 76.832031 78.867188 L 76.832031 38.046875 L 72.746094 38.046875 Z M 72.800781 78.867188 " fill-opacity="1" fill-rule="nonzero"/></g><g clip-path="url(#3f8be3e047)"><path fill="#23255d" d="M 48.191406 2.011719 C 45.875 0.0351562 42.53125 0.0351562 40.21875 2.011719 L 0.0117188 36.488281 L 2.664062 39.582031 L 42.886719 5.109375 C 43.664062 4.453125 44.777344 4.453125 45.539062 5.109375 L 85.761719 39.582031 L 88.414062 36.488281 Z M 48.191406 2.011719 " fill-opacity="1" fill-rule="nonzero"/></g></svg>